<svg width="55" height="55" viewBox="0 0 55 55" fill="none" xmlns="http://www.w3.org/2000/svg">
<rect width="55" height="55" fill="white"/>
<path d="M18.76 21.2V19.54H22.52V34H20.68V21.2H18.76ZM33.7063 22.98C33.4129 21.5 32.4996 20.76 30.9663 20.76C29.7796 20.76 28.8929 21.22 28.3063 22.14C27.7196 23.0467 27.4329 24.5467 27.4463 26.64C27.7529 25.9467 28.2596 25.4067 28.9663 25.02C29.6863 24.62 30.4863 24.42 31.3663 24.42C32.7396 24.42 33.8329 24.8467 34.6463 25.7C35.4729 26.5533 35.8863 27.7333 35.8863 29.24C35.8863 30.1467 35.7063 30.96 35.3463 31.68C34.9996 32.4 34.4663 32.9733 33.7463 33.4C33.0396 33.8267 32.1796 34.04 31.1663 34.04C29.7929 34.04 28.7196 33.7333 27.9463 33.12C27.1729 32.5067 26.6329 31.66 26.3263 30.58C26.0196 29.5 25.8663 28.1667 25.8663 26.58C25.8663 21.6867 27.5729 19.24 30.9863 19.24C32.2929 19.24 33.3196 19.5933 34.0663 20.3C34.8129 21.0067 35.2529 21.9 35.3863 22.98H33.7063ZM30.9863 25.96C30.4129 25.96 29.8729 26.08 29.3663 26.32C28.8596 26.5467 28.4463 26.9 28.1263 27.38C27.8196 27.8467 27.6663 28.42 27.6663 29.1C27.6663 30.1133 27.9596 30.94 28.5463 31.58C29.1329 32.2067 29.9729 32.52 31.0663 32.52C31.9996 32.52 32.7396 32.2333 33.2863 31.66C33.8463 31.0733 34.1263 30.2867 34.1263 29.3C34.1263 28.26 33.8596 27.4467 33.3263 26.86C32.7929 26.26 32.0129 25.96 30.9863 25.96Z" fill="#9F9F9F"/>
</svg>
