<svg width="60" height="60" viewBox="0 0 60 60" fill="none" xmlns="http://www.w3.org/2000/svg">
<rect width="60" height="60" rx="10" fill="#FFF9E6"/>
<path d="M25.02 35.54C26.7133 34.18 28.04 33.0667 29 32.2C29.96 31.32 30.7667 30.4067 31.42 29.46C32.0867 28.5 32.42 27.56 32.42 26.64C32.42 25.7733 32.2067 25.0933 31.78 24.6C31.3667 24.0933 30.6933 23.84 29.76 23.84C28.8533 23.84 28.1467 24.1267 27.64 24.7C27.1467 25.26 26.88 26.0133 26.84 26.96H25.08C25.1333 25.4667 25.5867 24.3133 26.44 23.5C27.2933 22.6867 28.3933 22.28 29.74 22.28C31.1133 22.28 32.2 22.66 33 23.42C33.8133 24.18 34.22 25.2267 34.22 26.56C34.22 27.6667 33.8867 28.7467 33.22 29.8C32.5667 30.84 31.82 31.76 30.98 32.56C30.14 33.3467 29.0667 34.2667 27.76 35.32H34.64V36.84H25.02V35.54Z" fill="black"/>
</svg>
