<svg width="60" height="60" viewBox="0 0 60 60" fill="none" xmlns="http://www.w3.org/2000/svg">
<rect width="60" height="60" rx="10" fill="#FFF9E6"/>
<path d="M25.2 26.18C25.2933 24.9533 25.7667 23.9933 26.62 23.3C27.4733 22.6067 28.58 22.26 29.94 22.26C30.8467 22.26 31.6267 22.4267 32.28 22.76C32.9467 23.08 33.4467 23.52 33.78 24.08C34.1267 24.64 34.3 25.2733 34.3 25.98C34.3 26.8067 34.06 27.52 33.58 28.12C33.1133 28.72 32.5 29.1067 31.74 29.28V29.38C32.6067 29.5933 33.2933 30.0133 33.8 30.64C34.3067 31.2667 34.56 32.0867 34.56 33.1C34.56 33.86 34.3867 34.5467 34.04 35.16C33.6933 35.76 33.1733 36.2333 32.48 36.58C31.7867 36.9267 30.9533 37.1 29.98 37.1C28.5667 37.1 27.4067 36.7333 26.5 36C25.5933 35.2533 25.0867 34.2 24.98 32.84H26.74C26.8333 33.64 27.16 34.2933 27.72 34.8C28.28 35.3067 29.0267 35.56 29.96 35.56C30.8933 35.56 31.6 35.32 32.08 34.84C32.5733 34.3467 32.82 33.7133 32.82 32.94C32.82 31.94 32.4867 31.22 31.82 30.78C31.1533 30.34 30.1467 30.12 28.8 30.12H28.34V28.6H28.82C30.0467 28.5867 30.9733 28.3867 31.6 28C32.2267 27.6 32.54 26.9867 32.54 26.16C32.54 25.4533 32.3067 24.8867 31.84 24.46C31.3867 24.0333 30.7333 23.82 29.88 23.82C29.0533 23.82 28.3867 24.0333 27.88 24.46C27.3733 24.8867 27.0733 25.46 26.98 26.18H25.2Z" fill="black"/>
</svg>
