<svg width="188" height="55" viewBox="0 0 188 55" fill="none" xmlns="http://www.w3.org/2000/svg">
<rect width="188" height="55" fill="white"/>
<path d="M35.88 20.06C37.4 20.06 38.7133 20.3467 39.82 20.92C40.94 21.48 41.7933 22.2867 42.38 23.34C42.98 24.3933 43.28 25.6333 43.28 27.06C43.28 28.4867 42.98 29.7267 42.38 30.78C41.7933 31.82 40.94 32.62 39.82 33.18C38.7133 33.7267 37.4 34 35.88 34H31.54V20.06H35.88ZM35.88 32.5C37.68 32.5 39.0533 32.0267 40 31.08C40.9467 30.12 41.42 28.78 41.42 27.06C41.42 25.3267 40.94 23.9733 39.98 23C39.0333 22.0267 37.6667 21.54 35.88 21.54H33.36V32.5H35.88ZM55.6806 28.1C55.6806 28.4467 55.6606 28.8133 55.6206 29.2H46.8606C46.9273 30.28 47.294 31.1267 47.9606 31.74C48.6406 32.34 49.4606 32.64 50.4206 32.64C51.2073 32.64 51.8606 32.46 52.3806 32.1C52.914 31.7267 53.2873 31.2333 53.5006 30.62H55.4606C55.1673 31.6733 54.5806 32.5333 53.7006 33.2C52.8206 33.8533 51.7273 34.18 50.4206 34.18C49.3806 34.18 48.4473 33.9467 47.6206 33.48C46.8073 33.0133 46.1673 32.3533 45.7006 31.5C45.234 30.6333 45.0006 29.6333 45.0006 28.5C45.0006 27.3667 45.2273 26.3733 45.6806 25.52C46.134 24.6667 46.7673 24.0133 47.5806 23.56C48.4073 23.0933 49.354 22.86 50.4206 22.86C51.4606 22.86 52.3806 23.0867 53.1806 23.54C53.9806 23.9933 54.594 24.62 55.0206 25.42C55.4606 26.2067 55.6806 27.1 55.6806 28.1ZM53.8006 27.72C53.8006 27.0267 53.6473 26.4333 53.3406 25.94C53.034 25.4333 52.614 25.0533 52.0806 24.8C51.5606 24.5333 50.9806 24.4 50.3406 24.4C49.4206 24.4 48.634 24.6933 47.9806 25.28C47.3406 25.8667 46.974 26.68 46.8806 27.72H53.8006ZM62.543 24.54H60.243V34H58.423V24.54H57.003V23.04H58.423V22.26C58.423 21.0333 58.7363 20.14 59.363 19.58C60.003 19.0067 61.023 18.72 62.423 18.72V20.24C61.623 20.24 61.0563 20.4 60.723 20.72C60.403 21.0267 60.243 21.54 60.243 22.26V23.04H62.543V24.54ZM63.985 28.48C63.985 27.36 64.2117 26.38 64.665 25.54C65.1183 24.6867 65.7383 24.0267 66.525 23.56C67.325 23.0933 68.2117 22.86 69.185 22.86C70.145 22.86 70.9783 23.0667 71.685 23.48C72.3917 23.8933 72.9183 24.4133 73.265 25.04V23.04H75.105V34H73.265V31.96C72.905 32.6 72.365 33.1333 71.645 33.56C70.9383 33.9733 70.1117 34.18 69.165 34.18C68.1917 34.18 67.3117 33.94 66.525 33.46C65.7383 32.98 65.1183 32.3067 64.665 31.44C64.2117 30.5733 63.985 29.5867 63.985 28.48ZM73.265 28.5C73.265 27.6733 73.0983 26.9533 72.765 26.34C72.4317 25.7267 71.9783 25.26 71.405 24.94C70.845 24.6067 70.225 24.44 69.545 24.44C68.865 24.44 68.245 24.6 67.685 24.92C67.125 25.24 66.6783 25.7067 66.345 26.32C66.0117 26.9333 65.845 27.6533 65.845 28.48C65.845 29.32 66.0117 30.0533 66.345 30.68C66.6783 31.2933 67.125 31.7667 67.685 32.1C68.245 32.42 68.865 32.58 69.545 32.58C70.225 32.58 70.845 32.42 71.405 32.1C71.9783 31.7667 72.4317 31.2933 72.765 30.68C73.0983 30.0533 73.265 29.3267 73.265 28.5ZM87.9006 23.04V34H86.0806V32.38C85.734 32.94 85.2473 33.38 84.6206 33.7C84.0073 34.0067 83.3273 34.16 82.5806 34.16C81.7273 34.16 80.9606 33.9867 80.2806 33.64C79.6006 33.28 79.0606 32.7467 78.6606 32.04C78.274 31.3333 78.0806 30.4733 78.0806 29.46V23.04H79.8806V29.22C79.8806 30.3 80.154 31.1333 80.7006 31.72C81.2473 32.2933 81.994 32.58 82.9406 32.58C83.914 32.58 84.6806 32.28 85.2406 31.68C85.8006 31.08 86.0806 30.2067 86.0806 29.06V23.04H87.9006ZM92.7936 19.2V34H90.9736V19.2H92.7936ZM98.1155 24.54V31C98.1155 31.5333 98.2288 31.9133 98.4555 32.14C98.6821 32.3533 99.0755 32.46 99.6355 32.46H100.975V34H99.3355C98.3221 34 97.5621 33.7667 97.0555 33.3C96.5488 32.8333 96.2955 32.0667 96.2955 31V24.54H94.8755V23.04H96.2955V20.28H98.1155V23.04H100.975V24.54H98.1155Z" fill="#9F9F9F"/>
</svg>
