<svg width="98" height="60" viewBox="0 0 98 60" fill="none" xmlns="http://www.w3.org/2000/svg">
<rect width="98" height="60" rx="10" fill="#FFF9E6"/>
<path d="M40.14 37H38.74L31 25.24V37H29.6V23.02H31L38.74 34.76V23.02H40.14V37ZM53.1909 30.98C53.1909 31.46 53.1776 31.8267 53.1509 32.08H44.0909C44.1309 32.9067 44.3309 33.6133 44.6909 34.2C45.0509 34.7867 45.5243 35.2333 46.1109 35.54C46.6976 35.8333 47.3376 35.98 48.0309 35.98C48.9376 35.98 49.6976 35.76 50.3109 35.32C50.9376 34.88 51.3509 34.2867 51.5509 33.54H53.0309C52.7643 34.6067 52.1909 35.48 51.3109 36.16C50.4443 36.8267 49.3509 37.16 48.0309 37.16C47.0043 37.16 46.0843 36.9333 45.2709 36.48C44.4576 36.0133 43.8176 35.36 43.3509 34.52C42.8976 33.6667 42.6709 32.6733 42.6709 31.54C42.6709 30.4067 42.8976 29.4133 43.3509 28.56C43.8043 27.7067 44.4376 27.0533 45.2509 26.6C46.0643 26.1467 46.9909 25.92 48.0309 25.92C49.0709 25.92 49.9776 26.1467 50.7509 26.6C51.5376 27.0533 52.1376 27.6667 52.5509 28.44C52.9776 29.2 53.1909 30.0467 53.1909 30.98ZM51.7709 30.94C51.7843 30.1267 51.6176 29.4333 51.2709 28.86C50.9376 28.2867 50.4776 27.8533 49.8909 27.56C49.3043 27.2667 48.6643 27.12 47.9709 27.12C46.9309 27.12 46.0443 27.4533 45.3109 28.12C44.5776 28.7867 44.1709 29.7267 44.0909 30.94H51.7709ZM61.4723 37L58.6523 32.6L55.9323 37H54.4523L57.9723 31.54L54.4923 26.08H56.0723L58.8523 30.42L61.5523 26.08H63.0123L59.5323 31.48L63.0523 37H61.4723ZM66.7716 27.26V34.04C66.7716 34.7067 66.8982 35.1667 67.1516 35.42C67.4049 35.6733 67.8516 35.8 68.4916 35.8H69.7716V37H68.2716C67.2849 37 66.5516 36.7733 66.0716 36.32C65.5916 35.8533 65.3516 35.0933 65.3516 34.04V27.26H63.8316V26.08H65.3516V23.34H66.7716V26.08H69.7716V27.26H66.7716Z" fill="black"/>
</svg>
